<?xml version="1.0" encoding="iso-8859-1"?>
<!-- Uploaded to: SVG Repo, www.svgrepo.com, Generator: SVG Repo Mixer Tools -->
<svg height="800px" width="800px" version="1.1" id="Layer_1" xmlns="http://www.w3.org/2000/svg" xmlns:xlink="http://www.w3.org/1999/xlink" 
	 viewBox="0 0 512 512" xml:space="preserve">
<g>
	<g>
		<path style="fill:#ED8C18;" d="M128.001,316.83V195.167c0-7.607-6.226-13.837-13.832-13.837H10.667v149.336h103.501
			C121.775,330.667,128.001,324.437,128.001,316.83z"/>
		<path style="fill:#ED8C18;" d="M170.665,223.996v92.833c0,7.607,6.227,13.837,13.836,13.837h142.998
			c7.609,0,13.835-6.23,13.835-13.837V195.167c0-7.607-6.226-13.837-13.835-13.837H184.501c-7.609,0-13.836,6.23-13.836,13.837
			V223.996z"/>
		<path style="fill:#ED8C18;" d="M383.998,195.167V316.83c0,7.607,6.227,13.837,13.835,13.837h103.5V181.33H397.832
			C390.225,181.33,383.998,187.56,383.998,195.167z"/>
	</g>
	<path style="fill:#FCD051;" d="M383.998,316.83V195.167c0-7.607,6.227-13.837,13.835-13.837h103.5v-19.35v-19.343v-7.942v-19.376
		V96.001H10.667v19.318v19.318v8.053v19.291v19.35h103.501c7.607,0,13.832,6.23,13.832,13.837V316.83
		c0,7.607-6.226,13.837-13.832,13.837H10.667v19.318v19.322v8.046v19.297V416h490.665v-19.35v-19.35v-7.942v-19.374v-19.318H397.832
		C390.225,330.667,383.998,324.437,383.998,316.83L383.998,316.83z M341.334,195.167V316.83c0,7.607-6.226,13.837-13.835,13.837
		H184.501c-7.609,0-13.836-6.23-13.836-13.837v-92.835v-28.829c0-7.607,6.227-13.837,13.836-13.837h142.998
		C335.108,181.33,341.334,187.56,341.334,195.167z"/>
</g>
<g>
	<path style="fill:#000003;" d="M352.001,316.83V195.167c0-13.511-10.992-24.504-24.502-24.504H184.501
		c-13.51,0-24.503,10.993-24.503,24.504V316.83c0,13.511,10.993,24.504,24.503,24.504h142.998
		C341.009,341.334,352.001,330.341,352.001,316.83z M330.666,316.83c0,1.717-1.45,3.169-3.167,3.169H184.501
		c-1.717,0-3.168-1.451-3.168-3.169v-82.167h68.658c5.892,0,10.667-4.777,10.667-10.667c0-5.892-4.776-10.667-10.667-10.667h-68.658
		v-18.161c0-1.717,1.45-3.169,3.168-3.169h142.998c1.716,0,3.167,1.451,3.167,3.169V316.83z"/>
	<path style="fill:#000003;" d="M512,181.33c0-0.014-0.002-0.027-0.002-0.042V96.001c0-5.891-4.777-10.667-10.667-10.667H10.667
		C4.776,85.334,0,90.111,0,96.001v85.329v149.336v85.333c0,5.891,4.776,10.667,10.667,10.667H501.33
		c5.891,0,10.667-4.777,10.667-10.667v-85.292c0-0.015,0.002-0.027,0.002-0.042V181.33L512,181.33z M490.663,319.999h-92.831
		c-1.716,0-3.167-1.451-3.167-3.169V195.167c0-1.717,1.45-3.169,3.167-3.169h92.83v128.002H490.663z M21.335,191.997h92.833
		c1.715,0,3.165,1.451,3.165,3.169V316.83c0,1.717-1.449,3.169-3.165,3.169H21.335V191.997z M21.335,405.332v-21.337h5.868
		c3.756,0,6.827-3.069,6.827-6.827v-7.673c0-3.758-3.071-6.827-6.827-6.827h-5.868v-21.333h92.833c13.509,0,24.5-10.993,24.5-24.504
		V195.167c0-13.511-10.991-24.504-24.5-24.504H21.335V149.33h5.868c3.756,0,6.827-3.069,6.827-6.827v-7.677
		c0-3.755-3.071-6.827-6.827-6.827h-5.868v-21.33h469.328v21.328h-5.867c-3.756,0-6.829,3.073-6.829,6.827v7.677
		c0,3.758,3.073,6.827,6.829,6.827h5.867v21.333h-92.831c-13.51,0-24.502,10.993-24.502,24.504v121.663
		c0,13.511,10.992,24.504,24.502,24.504h92.83v21.333h-5.867c-3.756,0-6.829,3.069-6.829,6.827v7.673
		c0,3.758,3.073,6.827,6.829,6.827h5.867v21.337H21.335V405.332z"/>
	<path style="fill:#000003;" d="M73.935,362.667h-9.712c-3.756,0-6.827,3.069-6.827,6.827v7.673c0,3.758,3.071,6.827,6.827,6.827
		h9.712c3.755,0,6.827-3.069,6.827-6.827v-7.673C80.762,365.736,77.689,362.667,73.935,362.667z"/>
	<path style="fill:#000003;" d="M120.664,362.667h-9.712c-3.754,0-6.827,3.069-6.827,6.827v7.673c0,3.758,3.073,6.827,6.827,6.827
		h9.712c3.755,0,6.827-3.069,6.827-6.827v-7.673C127.492,365.736,124.419,362.667,120.664,362.667z"/>
	<path style="fill:#000003;" d="M167.394,362.667h-9.71c-3.756,0-6.829,3.069-6.829,6.827v7.673c0,3.758,3.073,6.827,6.829,6.827
		h9.71c3.756,0,6.827-3.069,6.827-6.827v-7.673C174.221,365.736,171.15,362.667,167.394,362.667z"/>
	<path style="fill:#000003;" d="M214.124,362.667h-9.712c-3.756,0-6.827,3.069-6.827,6.827v7.673c0,3.758,3.071,6.827,6.827,6.827
		h9.712c3.756,0,6.826-3.069,6.826-6.827v-7.673C220.952,365.736,217.881,362.667,214.124,362.667z"/>
	<path style="fill:#000003;" d="M260.854,362.667h-9.712c-3.755,0-6.825,3.069-6.825,6.827v7.673c0,3.758,3.071,6.827,6.825,6.827
		h9.712c3.756,0,6.827-3.069,6.827-6.827v-7.673C267.682,365.736,264.611,362.667,260.854,362.667z"/>
	<path style="fill:#000003;" d="M307.583,362.667h-9.711c-3.755,0-6.824,3.069-6.824,6.827v7.673c0,3.758,3.07,6.827,6.824,6.827
		h9.711c3.757,0,6.827-3.069,6.827-6.827v-7.673C314.41,365.736,311.339,362.667,307.583,362.667z"/>
	<path style="fill:#000003;" d="M354.314,362.667h-9.711c-3.755,0-6.826,3.069-6.826,6.827v7.673c0,3.758,3.071,6.827,6.826,6.827
		h9.711c3.758,0,6.828-3.069,6.828-6.827v-7.673C361.142,365.736,358.072,362.667,354.314,362.667z"/>
	<path style="fill:#000003;" d="M401.044,362.667h-9.71c-3.757,0-6.826,3.069-6.826,6.827v7.673c0,3.758,3.07,6.827,6.826,6.827
		h9.71c3.756,0,6.827-3.069,6.827-6.827v-7.673C407.872,365.736,404.801,362.667,401.044,362.667z"/>
	<path style="fill:#000003;" d="M447.776,362.667h-9.711c-3.757,0-6.827,3.069-6.827,6.827v7.673c0,3.758,3.07,6.827,6.827,6.827
		h9.711c3.755,0,6.827-3.069,6.827-6.827v-7.673C454.603,365.736,451.529,362.667,447.776,362.667z"/>
	<path style="fill:#000003;" d="M73.935,127.997h-9.712c-3.756,0-6.827,3.073-6.827,6.827v7.677c0,3.758,3.071,6.827,6.827,6.827
		h9.712c3.755,0,6.827-3.069,6.827-6.827v-7.677C80.762,131.07,77.689,127.997,73.935,127.997z"/>
	<path style="fill:#000003;" d="M120.664,127.997h-9.712c-3.754,0-6.827,3.073-6.827,6.827v7.677c0,3.758,3.073,6.827,6.827,6.827
		h9.712c3.755,0,6.827-3.069,6.827-6.827v-7.677C127.492,131.07,124.419,127.997,120.664,127.997z"/>
	<path style="fill:#000003;" d="M157.684,149.33h9.71c3.756,0,6.827-3.069,6.827-6.827v-7.677c0-3.755-3.071-6.827-6.827-6.827
		h-9.71c-3.756,0-6.829,3.073-6.829,6.827v7.677C150.855,146.261,153.928,149.33,157.684,149.33z"/>
	<path style="fill:#000003;" d="M204.414,149.33h9.712c3.756,0,6.826-3.069,6.826-6.827v-7.677c0-3.755-3.07-6.827-6.826-6.827
		h-9.712c-3.756,0-6.827,3.073-6.827,6.827v7.677C197.587,146.261,200.657,149.33,204.414,149.33z"/>
	<path style="fill:#000003;" d="M251.144,149.33h9.712c3.756,0,6.827-3.069,6.827-6.827v-7.677c0-3.755-3.071-6.827-6.827-6.827
		h-9.712c-3.755,0-6.825,3.073-6.825,6.827v7.677C244.318,146.261,247.389,149.33,251.144,149.33z"/>
	<path style="fill:#000003;" d="M297.871,149.33h9.711c3.757,0,6.827-3.069,6.827-6.827v-7.677c0-3.755-3.071-6.827-6.827-6.827
		h-9.711c-3.755,0-6.824,3.073-6.824,6.827v7.677C291.047,146.261,294.117,149.33,297.871,149.33z"/>
	<path style="fill:#000003;" d="M354.314,127.997h-9.711c-3.755,0-6.826,3.073-6.826,6.827v7.677c0,3.758,3.071,6.827,6.826,6.827
		h9.711c3.758,0,6.828-3.069,6.828-6.827v-7.677C361.142,131.07,358.072,127.997,354.314,127.997z"/>
	<path style="fill:#000003;" d="M391.335,149.33h9.71c3.756,0,6.827-3.069,6.827-6.827v-7.677c0-3.755-3.071-6.827-6.827-6.827
		h-9.71c-3.757,0-6.826,3.073-6.826,6.827v7.677C384.508,146.261,387.578,149.33,391.335,149.33z"/>
	<path style="fill:#000003;" d="M438.064,149.33h9.711c3.755,0,6.827-3.069,6.827-6.827v-7.677c0-3.755-3.073-6.827-6.827-6.827
		h-9.711c-3.757,0-6.827,3.073-6.827,6.827v7.677C431.238,146.261,434.308,149.33,438.064,149.33z"/>
	<path style="fill:#000003;" d="M280.889,213.332h-0.254c-5.891,0-10.667,4.776-10.667,10.667c0,5.891,4.777,10.667,10.667,10.667
		h0.254c5.892,0,10.667-4.777,10.667-10.667C291.556,218.109,286.78,213.332,280.889,213.332z"/>
</g>
</svg>